<svg id="dashboard" xmlns="http://www.w3.org/2000/svg" width="75.684" height="75.684" viewBox="0 0 75.684 75.684">
  <path id="Path_2013" data-name="Path 2013" d="M29.17,0H5.518A5.524,5.524,0,0,0,0,5.518V19.709a5.525,5.525,0,0,0,5.518,5.519H29.17a5.525,5.525,0,0,0,5.519-5.519V5.518A5.525,5.525,0,0,0,29.17,0Zm0,0" fill="#1e5792"/>
  <path id="Path_2014" data-name="Path 2014" d="M29.17,213.332H5.518A5.525,5.525,0,0,0,0,218.851v33.112a5.525,5.525,0,0,0,5.518,5.518H29.17a5.525,5.525,0,0,0,5.519-5.518V218.851A5.525,5.525,0,0,0,29.17,213.332Zm0,0" transform="translate(0 -181.797)" fill="#1e5792"/>
  <path id="Path_2015" data-name="Path 2015" d="M306.5,341.332H282.851a5.525,5.525,0,0,0-5.519,5.519v14.191a5.525,5.525,0,0,0,5.519,5.518H306.5a5.525,5.525,0,0,0,5.518-5.518V346.851A5.525,5.525,0,0,0,306.5,341.332Zm0,0" transform="translate(-236.337 -290.876)" fill="#1e5792"/>
  <path id="Path_2016" data-name="Path 2016" d="M306.5,0H282.851a5.525,5.525,0,0,0-5.519,5.518V38.63a5.525,5.525,0,0,0,5.519,5.519H306.5a5.525,5.525,0,0,0,5.518-5.519V5.518A5.524,5.524,0,0,0,306.5,0Zm0,0" transform="translate(-236.337)" fill="#1e5792"/>
</svg>
